<svg width="24" height="24" viewBox="0 0 24 24" fill="none" xmlns="http://www.w3.org/2000/svg">
<path d="M19.3868 14.2307L19.3791 14.239L19.3717 14.2475C18.6041 15.132 16.8887 16.5399 15.2764 17.7948C14.4823 18.4129 13.7324 18.9794 13.1654 19.4074L13.121 19.441C12.8579 19.6395 12.6342 19.8084 12.4684 19.9355C12.381 20.0024 12.306 20.0606 12.248 20.107L12.2436 20.1106C12.2291 20.1222 12.2087 20.1385 12.1859 20.1576C12.118 20.1938 12.07 20.2178 12.0267 20.2354C12.0158 20.2398 12.0069 20.2431 12 20.2455C11.9931 20.2431 11.9842 20.2398 11.9733 20.2354C11.9303 20.2179 11.8828 20.1942 11.8158 20.1585C11.7944 20.1404 11.7753 20.1248 11.7612 20.1133L11.7574 20.1102C11.6998 20.0632 11.6251 20.004 11.5377 19.9356C11.3625 19.7985 11.1232 19.6139 10.8404 19.3961L10.7633 19.3367C10.2057 18.9073 9.48661 18.3535 8.72676 17.7554C7.11565 16.4873 5.38929 15.0723 4.61322 14.2307C2.94544 12.422 2.75 10.4154 2.75 9.03727C2.75 6.04833 5.039 3.75 7.56701 3.75C9.09505 3.75 10.4876 4.55459 11.4017 5.87296C11.7409 6.36216 12.4653 6.36222 12.8045 5.87292C13.729 4.53944 15.1216 3.75 16.433 3.75C19.0555 3.75 21.25 6.03902 21.25 9.03727C21.25 10.4154 21.0546 12.422 19.3868 14.2307Z" stroke="#FF725E" stroke-width="1.5"/>
</svg>
