<svg width="25" height="24" viewBox="0 0 25 24" fill="none" xmlns="http://www.w3.org/2000/svg">
<path d="M9.66675 3L6.66675 6" stroke="#F2F2F2" stroke-width="1.5" stroke-miterlimit="10" stroke-linecap="round" stroke-linejoin="round"/>
<path d="M15.6667 3L18.6667 6" stroke="#F2F2F2" stroke-width="1.5" stroke-miterlimit="10" stroke-linecap="round" stroke-linejoin="round"/>
<path d="M3.66675 7.99888C3.66675 6.14992 4.55775 6 5.66475 6H19.6687C20.7757 6 21.6667 6.14992 21.6667 7.99888C21.6667 10.1477 20.7757 9.99775 19.6687 9.99775H5.66475C4.55775 9.99775 3.66675 10.1477 3.66675 7.99888Z" stroke="#F2F2F2" stroke-width="1.5"/>
<path d="M10.4268 14V17.55" stroke="#F2F2F2" stroke-width="1.5" stroke-linecap="round"/>
<path d="M15.0269 14V17.55" stroke="#F2F2F2" stroke-width="1.5" stroke-linecap="round"/>
<path d="M4.66675 10L5.99381 17.92C6.29498 19.6983 7.01969 21 9.71145 21H15.3867C18.3138 21 18.7467 19.7533 19.0856 18.03L20.6667 10" stroke="#F2F2F2" stroke-width="1.5" stroke-linecap="round"/>
</svg>
