<svg width="18" height="18" viewBox="0 0 18 18" fill="none" xmlns="http://www.w3.org/2000/svg">
<mask id="path-1-inside-1_87_794" fill="white">
<rect x="4.5" y="1.5" width="9" height="15" rx="1"/>
</mask>
<rect x="4.5" y="1.5" width="9" height="15" rx="1" stroke="#F2F2F2" stroke-width="3" mask="url(#path-1-inside-1_87_794)"/>
<path d="M7.49998 3.16216C7.49998 3.0726 7.58393 3 7.68748 3C7.79104 3 7.87498 3.0726 7.87498 3.16216C7.87498 3.25172 7.79104 3.32432 7.68748 3.32432C7.58393 3.32432 7.49998 3.25172 7.49998 3.16216Z" fill="#F2F2F2"/>
<path d="M8.24998 3.16216C8.24998 3.0726 8.33393 3 8.43748 3H10.3125C10.416 3 10.5 3.0726 10.5 3.16216C10.5 3.25172 10.416 3.32432 10.3125 3.32432H8.43748C8.33393 3.32432 8.24998 3.25172 8.24998 3.16216Z" fill="#F2F2F2"/>
<path d="M6.75 14.6757C6.64645 14.6757 6.5625 14.7483 6.5625 14.8378C6.5625 14.9274 6.64645 15 6.75 15H11.25C11.3535 15 11.4375 14.9274 11.4375 14.8378C11.4375 14.7483 11.3535 14.6757 11.25 14.6757H6.75Z" fill="#F2F2F2"/>
</svg>
