<svg width="24" height="24" viewBox="0 0 24 24" fill="none" xmlns="http://www.w3.org/2000/svg">
<path d="M16.25 7C16.25 9.34721 14.3472 11.25 12 11.25C9.65279 11.25 7.75 9.34721 7.75 7C7.75 4.65279 9.65279 2.75 12 2.75C14.3472 2.75 16.25 4.65279 16.25 7Z" stroke="#F2F2F2" stroke-width="1.5" stroke-linecap="round" stroke-linejoin="round"/>
<path d="M4.75 21C4.75 17.3809 7.84541 14.75 12 14.75C16.1546 14.75 19.25 17.3809 19.25 21C19.25 21.0146 19.2465 21.0421 19.2308 21.0798C19.2152 21.1175 19.1912 21.156 19.1617 21.1892C19.1318 21.2228 19.1046 21.2417 19.0889 21.25H4.9111C4.89536 21.2417 4.8682 21.2228 4.83833 21.1892C4.80883 21.156 4.78479 21.1175 4.76915 21.0798C4.75352 21.0421 4.75 21.0146 4.75 21ZM19.081 21.2536C19.081 21.2536 19.0812 21.2536 19.0815 21.2535L19.081 21.2536Z" stroke="#F2F2F2" stroke-width="1.5"/>
</svg>
