<svg width="25" height="24" viewBox="0 0 25 24" fill="none" xmlns="http://www.w3.org/2000/svg">
<path d="M7.58325 5C7.58325 6.24264 6.57589 7.25 5.33325 7.25C4.09061 7.25 3.08325 6.24264 3.08325 5C3.08325 3.75736 4.09061 2.75 5.33325 2.75C6.57589 2.75 7.58325 3.75736 7.58325 5Z" stroke="#F2F2F2" stroke-width="1.5" stroke-miterlimit="10" stroke-linecap="round" stroke-linejoin="round"/>
<path d="M7.58325 12C7.58325 13.2426 6.57589 14.25 5.33325 14.25C4.09061 14.25 3.08325 13.2426 3.08325 12C3.08325 10.7574 4.09061 9.75 5.33325 9.75C6.57589 9.75 7.58325 10.7574 7.58325 12Z" stroke="#F2F2F2" stroke-width="1.5" stroke-miterlimit="10" stroke-linecap="round" stroke-linejoin="round"/>
<path d="M7.58325 19C7.58325 20.2426 6.57589 21.25 5.33325 21.25C4.09061 21.25 3.08325 20.2426 3.08325 19C3.08325 17.7574 4.09061 16.75 5.33325 16.75C6.57589 16.75 7.58325 17.7574 7.58325 19Z" stroke="#F2F2F2" stroke-width="1.5" stroke-miterlimit="10" stroke-linecap="round" stroke-linejoin="round"/>
<path d="M11.8333 5H21.3333" stroke="#F2F2F2" stroke-width="1.5" stroke-linecap="round"/>
<path d="M11.8333 12H21.3333" stroke="#F2F2F2" stroke-width="1.5" stroke-linecap="round"/>
<path d="M11.8333 19H21.3333" stroke="#F2F2F2" stroke-width="1.5" stroke-linecap="round"/>
</svg>
