<svg width="24" height="24" viewBox="0 0 24 24" fill="none" xmlns="http://www.w3.org/2000/svg">
<path d="M11.9968 4C8.6956 4 6.01273 6.3748 6.01273 9.29694V11.8483C6.01273 12.3868 5.78135 13.3146 5.47217 13.7737L4.32521 15.4599C3.61709 16.5016 4.1058 17.6581 5.40235 18.0466C9.70094 19.3178 14.3386 19.3178 18.6372 18.0466C19.844 17.6934 20.3726 16.431 19.7144 15.4599L18.5674 13.7737C18.2682 13.3146 17.9809 12.3868 17.9809 11.8483V9.29694C17.9809 6.38362 15.2881 4 11.9968 4Z" stroke="#FF725E" stroke-width="1.5" stroke-miterlimit="10" stroke-linecap="round"/>
<path d="M14 3C13.6649 2.92857 13.3189 2.87302 12.9622 2.84127C11.9243 2.74603 10.9297 2.80159 10 3C10.3135 2.4127 11.0919 2 12 2C12.9081 2 13.6865 2.4127 14 3Z" stroke="#FF725E" stroke-width="1.5" stroke-miterlimit="10" stroke-linecap="round" stroke-linejoin="round"/>
<path d="M15 18.2256C15 19.8756 13.65 21.2256 12 21.2256C11.18 21.2256 10.42 20.8856 9.88 20.3456C9.34 19.8056 9 19.0456 9 18.2256" stroke="#FF725E" stroke-width="1.5" stroke-miterlimit="10"/>
</svg>
