<svg width="18" height="18" viewBox="0 0 18 18" fill="none" xmlns="http://www.w3.org/2000/svg">
<path d="M16.25 14.25H1.75C1.61193 14.25 1.5 14.1381 1.5 14V5.54839C1.5 5.41032 1.61193 5.29839 1.75 5.29839H4.99824C5.66902 5.29839 6.28079 4.91496 6.5732 4.31126L6.77676 3.89102L6.10705 3.56663L6.77676 3.89102C6.81853 3.80478 6.90593 3.75 7.00176 3.75H10.9982C11.0941 3.75 11.1815 3.80478 11.2232 3.89102L11.4238 4.30502C11.7189 4.91436 12.3391 5.29878 13.0161 5.29206L16.2475 5.25999C16.3865 5.25861 16.5 5.37093 16.5 5.50997V14C16.5 14.1381 16.3881 14.25 16.25 14.25Z" stroke="#F2F2F2" stroke-width="1.5" stroke-linecap="round"/>
<path d="M12 9.375C12 11.0319 10.6569 12.375 9 12.375C7.34315 12.375 6 11.0319 6 9.375C6 7.71815 7.34315 6.375 9 6.375C10.6569 6.375 12 7.71815 12 9.375Z" stroke="#F2F2F2" stroke-width="1.5"/>
</svg>
